<svg width="20" height="20" viewBox="0 0 20 20" fill="none" xmlns="http://www.w3.org/2000/svg">
<path d="M9.98336 17.5C8.93255 16.6022 7.95855 15.618 7.07154 14.5575C5.74043 12.965 4.15973 10.5934 4.15973 8.33338C4.15855 5.973 5.57757 3.84453 7.75463 2.94121C9.93168 2.03788 12.4377 2.53774 14.1032 4.20754C15.1984 5.29972 15.8119 6.78537 15.807 8.33338C15.807 10.5934 14.2263 12.965 12.8952 14.5575C12.0082 15.618 11.0342 16.6022 9.98336 17.5ZM9.98336 4.16671C7.68714 4.16946 5.82637 6.03333 5.82362 8.33338C5.82362 9.30504 6.26206 10.9875 8.34858 13.4884C8.86284 14.1034 9.40849 14.6914 9.98336 15.25C10.5583 14.6921 11.1042 14.1049 11.619 13.4909C13.7047 10.9867 14.1431 9.30421 14.1431 8.33338C14.1403 6.03333 12.2796 4.16946 9.98336 4.16671ZM9.98336 10.8334C8.60494 10.8334 7.48752 9.71409 7.48752 8.33338C7.48752 6.95266 8.60494 5.83338 9.98336 5.83338C11.3618 5.83338 12.4792 6.95266 12.4792 8.33338C12.4792 8.99642 12.2162 9.6323 11.7482 10.1011C11.2801 10.57 10.6453 10.8334 9.98336 10.8334Z" fill="white"/>
</svg>
