<svg width="20" height="20" viewBox="0 0 20 20" fill="none" xmlns="http://www.w3.org/2000/svg">
<path d="M14.6381 17.505H14.6148C11.4187 17.4262 8.36878 16.1479 6.06905 13.9234C3.84735 11.6219 2.57046 8.56799 2.49159 5.36753C2.48688 4.91919 2.66262 4.48782 2.9792 4.17086L5.23711 1.91086C5.56198 1.58554 6.0886 1.58554 6.41348 1.91086L9.74127 5.24419C10.066 5.56961 10.066 6.09711 9.74127 6.42253L8.41348 7.75002C8.65974 8.67163 9.11337 9.52452 9.7396 10.2434C10.4559 10.8709 11.3063 11.3255 12.2255 11.5725L13.5566 10.2442C13.8814 9.91887 14.4081 9.91887 14.7329 10.2442L18.0607 13.5775C18.3855 13.9029 18.3855 14.4304 18.0607 14.7559L15.8028 17.0167C15.495 17.3283 15.0758 17.504 14.6381 17.505ZM5.82363 3.67919H5.81947L4.15558 5.34919C4.22342 8.11474 5.32556 10.7539 7.24376 12.7442C9.23081 14.6649 11.8651 15.7688 14.6256 15.8375L16.2953 14.1667L14.1389 12.0125L13.0632 13.0892C12.9093 13.2451 12.6997 13.333 12.4809 13.3334C12.4224 13.3334 12.3641 13.3272 12.307 13.315C10.9207 13.0078 9.63344 12.3571 8.56323 11.4225C7.63016 10.3505 6.98054 9.06117 6.67388 7.67252C6.61603 7.3965 6.70149 7.10989 6.901 6.91086L7.97587 5.83336L5.82363 3.67919Z" fill="white"/>
</svg>
